<?xml version="1.0" standalone="no"?>
<!DOCTYPE svg PUBLIC "-//W3C//DTD SVG 20010904//EN"
 "http://www.w3.org/TR/2001/REC-SVG-20010904/DTD/svg10.dtd">
<svg version="1.0" xmlns="http://www.w3.org/2000/svg"
 width="460.000000pt" height="460.000000pt" viewBox="0 0 460.000000 460.000000"
 preserveAspectRatio="xMidYMid meet">
<metadata>
Created by potrace 1.14, written by Peter Selinger 2001-2017
</metadata>
<g transform="translate(0.000000,460.000000) scale(0.100000,-0.100000)"
fill="#000000" stroke="none">
<path d="M0 2300 l0 -2300 2300 0 2300 0 0 2300 0 2300 -2300 0 -2300 0 0
-2300z m1761 1200 c126 -50 228 -146 236 -224 6 -49 -8 -85 -72 -186 -47 -74
-158 -257 -169 -280 -4 -8 -17 -32 -29 -52 -47 -78 -137 -237 -178 -315 -35
-66 -42 -85 -33 -100 6 -10 55 -44 110 -75 77 -45 101 -55 110 -45 6 6 69 113
139 237 150 263 194 329 234 353 38 22 106 21 156 -3 22 -11 44 -19 49 -20 21
0 136 -93 157 -126 43 -69 24 -136 -97 -344 -151 -259 -195 -342 -192 -357 4
-19 145 -105 166 -101 14 3 21 19 117 253 29 72 76 186 105 255 29 69 81 195
115 280 35 85 86 209 113 275 28 66 68 165 91 219 22 55 51 110 63 124 41 43
105 74 165 79 91 8 139 -10 201 -74 28 -30 52 -59 52 -64 0 -5 44 -87 98 -182
55 -94 115 -201 134 -237 20 -36 88 -156 152 -268 64 -112 116 -205 116 -207
0 -3 33 -62 73 -132 73 -128 118 -208 165 -293 13 -25 41 -74 62 -110 88 -152
105 -202 89 -262 -13 -49 -87 -115 -182 -162 -115 -56 -182 -48 -246 33 -17
21 -31 42 -31 46 0 4 -8 19 -18 33 -11 15 -35 56 -54 92 -19 36 -52 95 -73
133 l-39 67 -47 0 c-26 0 -136 -6 -245 -14 -110 -8 -261 -18 -337 -22 l-139
-7 -19 -31 c-22 -36 -63 -155 -56 -162 10 -10 -22 -106 -56 -166 -42 -75 -98
-131 -148 -148 -30 -11 -44 -10 -90 5 -30 10 -76 31 -104 46 -27 16 -61 34
-74 39 -13 6 -35 19 -50 29 -32 23 -585 341 -696 401 -44 23 -85 47 -91 51
-27 22 -122 67 -128 62 -3 -4 -6 -61 -6 -128 0 -146 -16 -212 -61 -249 -42
-36 -67 -41 -194 -41 -89 1 -117 4 -149 20 -87 44 -96 87 -96 473 l0 283 -76
117 c-42 64 -185 279 -317 477 -132 197 -248 377 -258 400 -37 80 -15 141 76
213 158 124 255 135 338 37 22 -27 100 -146 220 -338 49 -79 141 -223 204
-319 24 -38 47 -68 51 -68 5 0 15 6 24 13 19 15 184 265 248 375 9 15 27 45
42 67 14 22 51 83 81 136 73 125 100 157 162 185 61 29 71 29 136 4z"/>
<path d="M3163 2498 c-10 -17 -71 -162 -90 -217 -9 -25 -22 -56 -30 -70 -28
-56 -21 -61 75 -60 101 0 240 13 250 23 4 4 0 19 -9 34 -8 15 -32 59 -53 97
-56 103 -120 205 -128 205 -4 0 -10 -6 -15 -12z"/>
</g>
</svg>
